<?xml version="1.0" standalone="no"?>
<!DOCTYPE svg PUBLIC "-//W3C//DTD SVG 20010904//EN"
 "http://www.w3.org/TR/2001/REC-SVG-20010904/DTD/svg10.dtd">
<svg version="1.0" xmlns="http://www.w3.org/2000/svg"
 width="512.000000pt" height="512.000000pt" viewBox="0 0 512.000000 512.000000"
 preserveAspectRatio="xMidYMid meet">
<metadata>
Created by potrace 1.14, written by Peter Selinger 2001-2017
</metadata>
<g transform="translate(0.000000,512.000000) scale(0.100000,-0.100000)"
fill="#000000" stroke="none">
<path d="M2465 4748 c-206 -29 -386 -132 -498 -286 -35 -48 -477 -805 -540
-926 -43 -82 -17 -205 55 -259 48 -36 391 -233 429 -246 90 -31 190 4 246 87
27 39 264 446 351 602 49 89 46 88 83 23 18 -32 38 -67 44 -78 12 -21 149
-256 181 -312 60 -101 74 -127 74 -137 0 -6 -41 -33 -91 -61 -103 -57 -119
-71 -128 -117 -15 -68 32 -119 119 -131 25 -4 56 -9 70 -11 33 -7 246 -44 290
-51 45 -7 79 -14 110 -20 13 -2 42 -7 65 -10 22 -3 47 -8 55 -10 8 -2 31 -7
50 -10 19 -3 59 -10 89 -16 66 -13 111 -6 138 24 12 12 62 135 113 272 50 138
96 261 101 275 6 14 24 63 41 110 16 47 36 100 44 118 42 92 -7 183 -94 176
-18 -1 -76 -28 -128 -58 -52 -31 -98 -56 -102 -56 -6 1 -66 101 -213 359 -154
270 -253 436 -261 439 -4 2 -8 9 -8 15 0 25 -157 165 -230 206 -141 78 -306
110 -455 89z"/>
<path d="M1460 2974 c-41 -7 -91 -16 -110 -19 -31 -5 -201 -35 -285 -50 -16
-3 -46 -8 -65 -11 -19 -3 -42 -7 -50 -9 -8 -3 -33 -7 -55 -10 -22 -3 -51 -7
-65 -10 -14 -3 -45 -8 -70 -11 -99 -13 -146 -54 -141 -123 3 -44 36 -81 105
-117 27 -14 67 -37 88 -50 l38 -24 -19 -33 c-10 -17 -51 -88 -91 -157 -40 -69
-81 -141 -92 -160 -11 -19 -37 -64 -58 -100 -21 -36 -47 -81 -58 -100 -11 -19
-43 -75 -71 -124 -105 -181 -133 -268 -136 -424 -7 -349 218 -645 555 -733 73
-19 179 -23 685 -23 510 0 521 0 560 21 47 25 75 54 101 103 16 31 18 65 19
280 2 272 -4 313 -55 368 -16 18 -49 42 -73 52 -41 18 -72 20 -456 20 -226 1
-411 4 -411 8 1 4 11 24 23 44 12 20 46 79 75 130 30 51 95 164 145 250 l91
157 25 -15 c14 -8 44 -25 66 -39 115 -72 168 -80 216 -32 44 43 43 69 -6 202
-20 55 -43 116 -50 135 -8 19 -49 130 -90 245 -94 258 -123 331 -140 345 -27
22 -71 27 -145 14z"/>
<path d="M3970 2730 c-27 -8 -30 -9 -230 -125 -212 -122 -228 -134 -258 -184
-22 -38 -27 -58 -27 -111 1 -62 4 -70 63 -168 34 -57 62 -106 62 -108 0 -3 16
-30 35 -60 19 -30 35 -56 35 -58 0 -5 201 -350 212 -364 6 -7 9 -14 7 -17 -6
-5 -108 -7 -415 -6 l-260 1 0 116 c1 106 -1 120 -22 150 -13 19 -34 36 -50 40
-15 3 -31 7 -37 9 -11 2 -67 -23 -75 -35 -3 -4 -24 -29 -47 -56 -23 -27 -114
-137 -203 -244 -90 -107 -174 -209 -189 -225 -110 -127 -129 -166 -107 -219
15 -34 535 -661 567 -684 24 -17 79 -18 108 -3 44 24 52 53 54 180 1 102 4
121 17 122 8 0 231 1 495 2 459 2 483 3 550 24 140 43 225 92 320 187 74 74
103 112 142 191 60 118 74 174 78 315 5 171 -26 274 -142 472 -36 62 -73 127
-83 143 -9 17 -43 75 -75 130 -32 55 -66 114 -75 130 -9 17 -38 65 -64 108
-25 43 -46 80 -46 82 0 7 -114 192 -129 209 -40 45 -149 74 -211 56z"/>
</g>
</svg>
